<svg width="221" height="90" viewBox="0 0 221 90" fill="none" xmlns="http://www.w3.org/2000/svg">
<g filter="url(#filter0_ii_72_1010)">
<rect width="221" height="90" rx="30" fill="#AB59FD"/>
</g>
<rect x="1.5" y="1.5" width="218" height="87" rx="28.5" stroke="white" stroke-width="3"/>
<g filter="url(#filter1_i_72_1010)">
<path d="M59.1281 25.75C65.6516 26.5703 68.9133 27.612 68.9133 28.875C68.6268 28.875 68.4836 29.0247 68.4836 29.3242H68.9133L69.8117 28.875C73.9654 33.1068 76.0422 36.5182 76.0422 39.1094L75.593 41.7656V42.2148H76.0422V40.8867H76.4914V44.8906C75.3065 44.8906 74.7141 45.3333 74.7141 46.2188V46.668H75.1437C75.1437 45.7826 75.4432 45.3398 76.0422 45.3398V45.7695C76.0422 46.069 75.8924 46.2188 75.593 46.2188L76.0422 47.1172V47.5664C75.4432 47.5664 75.1437 47.7096 75.1437 47.9961C75.4432 48.569 75.593 49.0182 75.593 49.3438L74.7141 49.7734L75.1437 50.6719C74.8573 51.2448 74.7141 51.6875 74.7141 52L73.8156 51.5703V52C74.1151 52 74.2648 52.1497 74.2648 52.4492C73.1841 53.9336 72.2922 54.6758 71.5891 54.6758L72.0383 55.5742L69.8117 57.3516L68.9133 56.9023L69.3625 57.8008V58.2305C65.6255 60.0143 62.0708 60.9062 58.6984 60.9062H55.1242L49.7922 60.457V57.8008C49.7922 55.431 49.9419 52.3125 50.2414 48.4453C50.2414 48.1458 50.0917 47.9961 49.7922 47.9961L50.2414 44.8906V31.9805L50.6711 27.5273C50.3846 27.5273 50.2414 27.3841 50.2414 27.0977C51.7909 26.4987 54.7531 26.0495 59.1281 25.75ZM60.4758 36.4336V48.8945C60.5669 49.4805 60.8599 49.7734 61.3547 49.7734L62.2531 49.3438C62.774 49.6302 63.3664 49.7734 64.0305 49.7734L64.4797 48.8945V43.1133L64.0305 40.8867H64.4797L64.0305 39.9883V35.5352H61.3547C60.7687 35.6393 60.4758 35.9388 60.4758 36.4336ZM71.5891 38.2109V40.4375H72.4875C72.188 39.9427 72.0383 39.2005 72.0383 38.2109H71.5891ZM74.7141 42.6641V43.5625H75.1437C75.7427 43.5625 76.0422 43.263 76.0422 42.6641H74.7141ZM94.6586 25.75H98.2133C100.752 25.75 102.679 26.6419 103.995 28.4258C103.708 28.4258 103.565 28.569 103.565 28.8555H103.995C103.995 28.569 104.144 28.4258 104.444 28.4258C105.928 30.1315 106.67 31.6159 106.67 32.8789L106.221 33.7578H106.67C106.67 33.4583 106.82 33.3086 107.12 33.3086C107.718 38.4128 108.018 42.5729 108.018 45.7891V48.0156C108.018 48.3151 107.868 48.4648 107.569 48.4648C107.569 48.7513 107.718 48.8945 108.018 48.8945C107.276 52.931 106.084 56.0495 104.444 58.25L103.565 57.8008L102.666 58.25C102.666 57.9505 102.517 57.8008 102.217 57.8008V58.25C102.816 58.3411 103.116 58.6406 103.116 59.1484H102.666L101.768 58.6992C101.768 59.2982 101.026 59.8906 99.5414 60.4766H94.6586C93.9815 60.4766 93.3826 60.6263 92.8617 60.9258C85.1534 60.9258 81.2992 57.2148 81.2992 49.793C80.9997 49.793 80.85 48.4583 80.85 45.7891V43.1133C80.85 35.0924 82.6273 29.8971 86.182 27.5273C88.6039 26.3424 91.4294 25.75 94.6586 25.75ZM92.432 35.9844V49.3438H92.8617C95.544 49.3438 96.8852 48.901 96.8852 48.0156C97.1716 46.8568 97.3148 45.6654 97.3148 44.4414V36.4336L95.0883 35.9844H92.432ZM125.267 25.75C129.004 32.3646 131.107 35.6719 131.576 35.6719C131.576 35.3594 131.726 34.9102 132.025 34.3242C132.025 34.0117 131.875 33.5625 131.576 32.9766C131.576 32.651 131.726 32.2018 132.025 31.6289C131.726 30.0013 131.576 28.6471 131.576 27.5664V26.2188H134.291C135.866 26.2188 138.418 26.3685 141.947 26.668V27.5664C141.947 33.6992 141.797 42.1172 141.498 52.8203L141.048 53.7188C141.048 54.0182 141.198 54.168 141.498 54.168L141.048 56.4141V59.1289H140.599C140.013 58.8294 139.564 58.6797 139.252 58.6797L139.701 59.5781C138.841 59.5781 135.983 60.0273 131.127 60.9258C126.699 52.8919 124.297 48.8359 123.92 48.7578L123.47 49.6562L123.92 50.5547H123.47L123.92 51.4531V60.4766H123.47C122.91 60.4766 119.304 60.3268 112.65 60.0273V59.5781C113.249 50.1641 113.548 39.793 113.548 28.4648C113.548 27.5664 117.455 26.6615 125.267 25.75ZM117.611 29.8125L117.162 30.7109H118.509C118.509 30.112 118.21 29.8125 117.611 29.8125ZM140.599 35.2227V37.4883C140.69 38.0872 140.99 38.3867 141.498 38.3867V35.2227H140.599ZM140.599 38.8359C140.899 39.3568 141.048 39.9557 141.048 40.6328H141.498V39.2852L140.599 38.8359ZM160.348 25.6523V26.1016C160.934 25.8021 161.384 25.6523 161.696 25.6523L164.86 26.1016C164.86 25.8021 165.016 25.6523 165.329 25.6523V26.5508H165.778V25.6523L166.677 26.1016H171.188V26.5508C171.188 27.5664 171.039 30.1315 170.739 34.2461H159.899V37.4102C165.381 37.0977 168.845 36.9414 170.29 36.9414V43.7383C170.29 45.2357 169.99 45.9844 169.391 45.9844C163.962 45.9844 161.247 45.6849 161.247 45.0859C160.661 45.3854 160.212 45.5352 159.899 45.5352L160.348 46.4336V47.3516C160.348 47.651 160.199 47.8008 159.899 47.8008C160.199 48.2956 160.348 49.0508 160.348 50.0664L162.614 49.5977V50.0664L163.512 49.5977H170.29L171.188 49.1484V50.0664L170.739 50.9648C171.039 50.9648 171.188 51.1146 171.188 51.4141C170.589 51.5052 170.29 51.8047 170.29 52.3125C170.29 52.9245 170.44 53.2305 170.739 53.2305L169.841 60.9062C166.299 60.6068 163.74 60.457 162.165 60.457H157.184L154.47 60.0078C153.975 60.3073 153.22 60.457 152.204 60.457H149.509V56.8438C149.509 56.1667 149.352 55.5612 149.04 55.0273C149.04 54.7279 149.196 54.5781 149.509 54.5781C148.897 45.8802 148.591 36.388 148.591 26.1016H153.571C155.082 26.1016 157.341 25.9518 160.348 25.6523ZM168.493 44.1875V45.5352C169.092 45.5352 169.391 45.2357 169.391 44.6367V44.1875H168.493Z" fill="white"/>
</g>
<defs>
<filter id="filter0_ii_72_1010" x="0" y="-4" width="223" height="104" filterUnits="userSpaceOnUse" color-interpolation-filters="sRGB">
<feFlood flood-opacity="0" result="BackgroundImageFix"/>
<feBlend mode="normal" in="SourceGraphic" in2="BackgroundImageFix" result="shape"/>
<feColorMatrix in="SourceAlpha" type="matrix" values="0 0 0 0 0 0 0 0 0 0 0 0 0 0 0 0 0 0 127 0" result="hardAlpha"/>
<feOffset dx="2" dy="24"/>
<feGaussianBlur stdDeviation="5"/>
<feComposite in2="hardAlpha" operator="arithmetic" k2="-1" k3="1"/>
<feColorMatrix type="matrix" values="0 0 0 0 0.669374 0 0 0 0 0.347083 0 0 0 0 0.991667 0 0 0 1 0"/>
<feBlend mode="normal" in2="shape" result="effect1_innerShadow_72_1010"/>
<feColorMatrix in="SourceAlpha" type="matrix" values="0 0 0 0 0 0 0 0 0 0 0 0 0 0 0 0 0 0 127 0" result="hardAlpha"/>
<feOffset dy="-14"/>
<feGaussianBlur stdDeviation="2"/>
<feComposite in2="hardAlpha" operator="arithmetic" k2="-1" k3="1"/>
<feColorMatrix type="matrix" values="0 0 0 0 0.423567 0 0 0 0 0.12125 0 0 0 0 0.808333 0 0 0 1 0"/>
<feBlend mode="normal" in2="effect1_innerShadow_72_1010" result="effect2_innerShadow_72_1010"/>
</filter>
<filter id="filter1_i_72_1010" x="49.7922" y="25.6523" width="121.396" height="39.2734" filterUnits="userSpaceOnUse" color-interpolation-filters="sRGB">
<feFlood flood-opacity="0" result="BackgroundImageFix"/>
<feBlend mode="normal" in="SourceGraphic" in2="BackgroundImageFix" result="shape"/>
<feColorMatrix in="SourceAlpha" type="matrix" values="0 0 0 0 0 0 0 0 0 0 0 0 0 0 0 0 0 0 127 0" result="hardAlpha"/>
<feOffset dy="4"/>
<feGaussianBlur stdDeviation="2"/>
<feComposite in2="hardAlpha" operator="arithmetic" k2="-1" k3="1"/>
<feColorMatrix type="matrix" values="0 0 0 0 0 0 0 0 0 0 0 0 0 0 0 0 0 0 0.25 0"/>
<feBlend mode="normal" in2="shape" result="effect1_innerShadow_72_1010"/>
</filter>
</defs>
</svg>
