<svg width="221" height="90" viewBox="0 0 221 90" fill="none" xmlns="http://www.w3.org/2000/svg">
<g filter="url(#filter0_ii_73_5)">
<rect width="221" height="90" rx="30" fill="#8423FF"/>
</g>
<rect x="1.5" y="1.5" width="218" height="87" rx="28.5" stroke="white" stroke-width="3"/>
<g filter="url(#filter1_i_73_5)">
<path d="M55.2789 25.6523C62.0367 25.6523 65.4156 29.474 65.4156 37.1172H61.4508C61.1513 37.1172 61.0016 36.9674 61.0016 36.668L60.1227 37.1172H56.607L55.7281 36.668L56.1578 35.7891V33.582H55.7281C53.124 33.8815 51.5094 34.0312 50.8844 34.0312V34.9102C50.8844 35.1836 54.1135 37.5339 60.5719 41.9609C62.2255 43.3281 63.3974 45.0924 64.0875 47.2539C64.4911 47.2539 64.7841 48.5755 64.9664 51.2188L64.5367 54.3047L63.6578 53.8555L64.0875 54.7344C63.801 55.3073 63.6578 55.75 63.6578 56.0625H63.2086L62.3297 55.6133L62.7789 56.4922C62.7789 57.3125 61.7503 58.3411 59.693 59.5781L57.4859 59.1484V59.5781L57.9352 60.457L51.7633 60.9062C45.2919 59.7734 42.0563 57.8659 42.0563 55.1836C42.3557 55.1836 42.5055 55.0339 42.5055 54.7344C41.3336 54.7344 40.7477 53.1198 40.7477 49.8906V46.8047H45.1422C45.8063 46.8047 46.3922 46.9544 46.9 47.2539C47.4208 46.9544 48.0133 46.8047 48.6773 46.8047H49.107V50.3398H49.5563L54.8492 49.8906V49.4414C53.7424 47.8659 50.3635 45.3724 44.7125 41.9609C42.0693 39.8516 40.7477 37.6445 40.7477 35.3398V33.582C40.7477 29.1419 44.5628 26.4987 52.193 25.6523H55.2789ZM70.1453 25.75H72.9188L73.8563 26.1992V25.75C74.1557 25.75 74.3055 25.8997 74.3055 26.1992L76.6297 25.75H92.3523V26.1992H91.4344V27.1367H92.3523V29.9102L92.8211 32.2148H92.3523L92.8211 33.1523V37.7812H91.9031C91.5906 37.7812 91.4344 37.625 91.4344 37.3125L90.4969 37.7812H87.7234L86.8055 37.3125L86.3367 38.2305L86.8055 40.0859L86.3367 41.0039L86.8055 41.9414L86.3367 45.1836L86.8055 46.1016C86.493 46.6354 86.3367 47.2539 86.3367 47.957V48.4062L86.8055 49.3438H86.3367C86.6492 49.9427 86.8055 50.4049 86.8055 50.7305L86.3367 51.6484L86.8055 52.5859L86.3367 53.5039C86.3367 53.8164 86.493 53.9727 86.8055 53.9727L86.3367 56.2773V57.6641L86.8055 60.9062C80.3341 60.2943 75.8615 59.9883 73.3875 59.9883V59.0508L74.3055 59.5195H74.7742C74.1622 58.7513 73.8563 58.2891 73.8563 58.1328C74.1557 48.5755 74.618 41.6354 75.243 37.3125L72.9188 36.8438H71.0828C70.7703 36.8438 70.6141 37 70.6141 37.3125C70.1063 37 69.3315 36.8438 68.2898 36.8438C68.9148 35.6589 69.5333 31.9609 70.1453 25.75ZM81.2586 42.8594V44.2461H82.1766V42.8594H81.2586ZM117.375 25.75L117.824 26.6484V27.1172C119.335 41.8958 120.988 52.5599 122.785 59.1094C118.814 59.9427 115.057 60.5417 111.516 60.9062V60.457L111.965 59.5586H111.516C111.516 59.8581 111.366 60.0078 111.066 60.0078C111.066 57.612 110.617 56.4141 109.719 56.4141C108.234 56.4141 106.431 56.2643 104.309 55.9648L102.512 60.0078V60.457H102.961V59.5586H103.41V60.9062C100.402 60.6068 98.1497 60.457 96.6523 60.457H95.7344V59.5586L94.8359 60.0078H92.5898V59.5586L98.8984 27.5664C98.599 27.5664 98.4492 27.4167 98.4492 27.1172C99.2695 26.8047 105.578 26.349 117.375 25.75ZM107.004 34.7734C105.806 40.4115 105.207 43.8685 105.207 45.1445H108.371L109.27 44.6953C108.97 44.3307 108.521 41.0234 107.922 34.7734H107.004ZM133.765 25.7109H137.32L136.87 26.6094H138.218L137.769 25.7109H139.097C140.295 25.7109 142.228 26.0104 144.898 26.6094V27.0391H143.999V27.4883H144.448L145.347 27.0391L149.351 29.2656L148.902 30.1641C150.099 30.1641 150.698 30.4635 150.698 31.0625V31.4922H149.8V31.9414H150.698C150.698 31.6419 150.842 31.4922 151.128 31.4922C152.027 31.4922 152.476 34.168 152.476 39.5195H152.027L152.476 40.418L151.577 42.1953H152.476V42.6445C152.007 42.6445 151.265 43.8294 150.249 46.1992C149.051 46.9023 148.452 47.6445 148.452 48.4258C148.452 48.6602 150.536 52.0781 154.702 58.6797C152.918 58.6797 148.609 59.4219 141.773 60.9062C141.773 59.0703 140.438 55.9518 137.769 51.5508V60.457H130.191C130.191 59.0638 129.598 58.1719 128.413 57.7812V58.6797H129.312V60.457C128.856 60.1576 127.964 60.0078 126.636 60.0078V49.3242L127.085 46.6484C127.085 46.349 126.935 46.1992 126.636 46.1992L126.538 42.5469V26.375C129.689 25.9323 132.098 25.7109 133.765 25.7109ZM150.698 32.3906V32.8398C150.985 33.4128 151.128 33.8555 151.128 34.168H151.577V33.7383C151.278 33.1523 151.128 32.7031 151.128 32.3906H150.698ZM135.991 35.5156L136.441 37.7422V40.418L138.218 41.7461H140.894V35.5156H137.32L136.441 35.9648C136.441 35.6654 136.291 35.5156 135.991 35.5156ZM146.226 35.5156V35.9648C146.551 35.9648 147.001 36.1081 147.573 36.3945V35.5156H146.226ZM146.226 47.0977L145.796 47.9766V48.4258C146.369 48.1263 146.812 47.9766 147.124 47.9766C147.124 47.3906 146.825 47.0977 146.226 47.0977ZM157.577 25.75H160.35L161.287 26.1992V25.75C161.587 25.75 161.737 25.8997 161.737 26.1992L164.061 25.75H179.784V26.1992H178.866V27.1367H179.784V29.9102L180.252 32.2148H179.784L180.252 33.1523V37.7812H179.334C179.022 37.7812 178.866 37.625 178.866 37.3125L177.928 37.7812H175.155L174.237 37.3125L173.768 38.2305L174.237 40.0859L173.768 41.0039L174.237 41.9414L173.768 45.1836L174.237 46.1016C173.924 46.6354 173.768 47.2539 173.768 47.957V48.4062L174.237 49.3438H173.768C174.08 49.9427 174.237 50.4049 174.237 50.7305L173.768 51.6484L174.237 52.5859L173.768 53.5039C173.768 53.8164 173.924 53.9727 174.237 53.9727L173.768 56.2773V57.6641L174.237 60.9062C167.765 60.2943 163.293 59.9883 160.819 59.9883V59.0508L161.737 59.5195H162.205C161.593 58.7513 161.287 58.2891 161.287 58.1328C161.587 48.5755 162.049 41.6354 162.674 37.3125L160.35 36.8438H158.514C158.202 36.8438 158.045 37 158.045 37.3125C157.537 37 156.763 36.8438 155.721 36.8438C156.346 35.6589 156.965 31.9609 157.577 25.75ZM168.69 42.8594V44.2461H169.608V42.8594H168.69Z" fill="white"/>
</g>
<defs>
<filter id="filter0_ii_73_5" x="0" y="-4" width="223" height="104" filterUnits="userSpaceOnUse" color-interpolation-filters="sRGB">
<feFlood flood-opacity="0" result="BackgroundImageFix"/>
<feBlend mode="normal" in="SourceGraphic" in2="BackgroundImageFix" result="shape"/>
<feColorMatrix in="SourceAlpha" type="matrix" values="0 0 0 0 0 0 0 0 0 0 0 0 0 0 0 0 0 0 127 0" result="hardAlpha"/>
<feOffset dx="2" dy="24"/>
<feGaussianBlur stdDeviation="5"/>
<feComposite in2="hardAlpha" operator="arithmetic" k2="-1" k3="1"/>
<feColorMatrix type="matrix" values="0 0 0 0 0.669374 0 0 0 0 0.347083 0 0 0 0 0.991667 0 0 0 1 0"/>
<feBlend mode="normal" in2="shape" result="effect1_innerShadow_73_5"/>
<feColorMatrix in="SourceAlpha" type="matrix" values="0 0 0 0 0 0 0 0 0 0 0 0 0 0 0 0 0 0 127 0" result="hardAlpha"/>
<feOffset dy="-14"/>
<feGaussianBlur stdDeviation="2"/>
<feComposite in2="hardAlpha" operator="arithmetic" k2="-1" k3="1"/>
<feColorMatrix type="matrix" values="0 0 0 0 0.423567 0 0 0 0 0.12125 0 0 0 0 0.808333 0 0 0 1 0"/>
<feBlend mode="normal" in2="effect1_innerShadow_73_5" result="effect2_innerShadow_73_5"/>
</filter>
<filter id="filter1_i_73_5" x="40.7477" y="25.6523" width="139.505" height="39.2539" filterUnits="userSpaceOnUse" color-interpolation-filters="sRGB">
<feFlood flood-opacity="0" result="BackgroundImageFix"/>
<feBlend mode="normal" in="SourceGraphic" in2="BackgroundImageFix" result="shape"/>
<feColorMatrix in="SourceAlpha" type="matrix" values="0 0 0 0 0 0 0 0 0 0 0 0 0 0 0 0 0 0 127 0" result="hardAlpha"/>
<feOffset dy="4"/>
<feGaussianBlur stdDeviation="2"/>
<feComposite in2="hardAlpha" operator="arithmetic" k2="-1" k3="1"/>
<feColorMatrix type="matrix" values="0 0 0 0 0 0 0 0 0 0 0 0 0 0 0 0 0 0 0.25 0"/>
<feBlend mode="normal" in2="shape" result="effect1_innerShadow_73_5"/>
</filter>
</defs>
</svg>
