<svg width="260" height="90" viewBox="0 0 260 90" fill="none" xmlns="http://www.w3.org/2000/svg">
<g filter="url(#filter0_ii_72_1102)">
<rect width="260" height="90" rx="30" fill="#AB59FD"/>
</g>
<rect x="1.5" y="1.5" width="257" height="87" rx="28.5" stroke="white" stroke-width="3"/>
<g filter="url(#filter1_i_72_1102)">
<path d="M78.4728 51H62.5128V44.44H75.7528C76.1928 44.44 76.4328 44.2 76.4328 43.72V42.32C76.4328 41.88 76.1928 41.68 75.7528 41.68H66.9928C63.3528 41.68 62.2328 40.08 62.2328 36.56V33C62.2328 29.36 64.0328 27.52 67.6728 27.52H82.7928V34.04H69.6728C69.2328 34.04 68.9928 34.28 68.9928 34.76V36.16C68.9928 36.6 69.2328 36.8 69.6728 36.8H78.4728C81.7928 36.8 83.4328 38.48 83.4328 41.84V45.48C83.4328 49.16 81.7928 51 78.4728 51ZM103.969 51H94.0888C90.3688 51 88.4888 49.24 88.4888 45.68V27.52H95.4088V42.8C95.4088 43.64 95.8088 44.08 96.6088 44.08H101.289C102.089 44.08 102.489 43.68 102.489 42.88V27.52H109.329V45.52C109.329 49.16 107.529 51 103.969 51ZM130.307 51H114.627V20.6H121.547V27.52H130.427C134.067 27.52 135.907 29.36 135.907 33.04V45.68C135.907 49.24 134.027 51 130.307 51ZM128.987 42.8V35.68C128.987 34.88 128.587 34.48 127.787 34.48H121.547V44.08H127.787C128.587 44.08 128.987 43.64 128.987 42.8ZM172.555 51H165.795V35.68C165.795 34.88 165.355 34.48 164.595 34.48H160.195V51H153.355V34.48H149.035C148.235 34.48 147.835 34.88 147.835 35.68V51H140.995V33.04C140.995 29.36 142.835 27.52 146.475 27.52H167.115C170.755 27.52 172.555 29.36 172.555 33.08V51ZM183.196 25.6H179.276C178.316 25.6 177.836 25.08 177.836 24.04V21.36C177.836 20.32 178.356 19.8 179.436 19.8H183.196C184.196 19.8 184.716 20.32 184.716 21.36V24.04C184.716 25.08 184.196 25.6 183.196 25.6ZM184.756 51H177.836V27.52H184.756V51ZM202.386 51H195.786C191.986 51 190.066 49.28 190.066 45.84V21H196.986V27.76H202.426V34.08H196.986V42.72C196.986 43.64 197.346 44.08 198.026 44.08H202.386V51Z" fill="white"/>
</g>
<defs>
<filter id="filter0_ii_72_1102" x="0" y="-4" width="262" height="104" filterUnits="userSpaceOnUse" color-interpolation-filters="sRGB">
<feFlood flood-opacity="0" result="BackgroundImageFix"/>
<feBlend mode="normal" in="SourceGraphic" in2="BackgroundImageFix" result="shape"/>
<feColorMatrix in="SourceAlpha" type="matrix" values="0 0 0 0 0 0 0 0 0 0 0 0 0 0 0 0 0 0 127 0" result="hardAlpha"/>
<feOffset dx="2" dy="24"/>
<feGaussianBlur stdDeviation="5"/>
<feComposite in2="hardAlpha" operator="arithmetic" k2="-1" k3="1"/>
<feColorMatrix type="matrix" values="0 0 0 0 0.669374 0 0 0 0 0.347083 0 0 0 0 0.991667 0 0 0 1 0"/>
<feBlend mode="normal" in2="shape" result="effect1_innerShadow_72_1102"/>
<feColorMatrix in="SourceAlpha" type="matrix" values="0 0 0 0 0 0 0 0 0 0 0 0 0 0 0 0 0 0 127 0" result="hardAlpha"/>
<feOffset dy="-14"/>
<feGaussianBlur stdDeviation="2"/>
<feComposite in2="hardAlpha" operator="arithmetic" k2="-1" k3="1"/>
<feColorMatrix type="matrix" values="0 0 0 0 0.423567 0 0 0 0 0.12125 0 0 0 0 0.808333 0 0 0 1 0"/>
<feBlend mode="normal" in2="effect1_innerShadow_72_1102" result="effect2_innerShadow_72_1102"/>
</filter>
<filter id="filter1_i_72_1102" x="62.2328" y="19.7998" width="140.193" height="35.2002" filterUnits="userSpaceOnUse" color-interpolation-filters="sRGB">
<feFlood flood-opacity="0" result="BackgroundImageFix"/>
<feBlend mode="normal" in="SourceGraphic" in2="BackgroundImageFix" result="shape"/>
<feColorMatrix in="SourceAlpha" type="matrix" values="0 0 0 0 0 0 0 0 0 0 0 0 0 0 0 0 0 0 127 0" result="hardAlpha"/>
<feOffset dy="4"/>
<feGaussianBlur stdDeviation="2"/>
<feComposite in2="hardAlpha" operator="arithmetic" k2="-1" k3="1"/>
<feColorMatrix type="matrix" values="0 0 0 0 0 0 0 0 0 0 0 0 0 0 0 0 0 0 0.25 0"/>
<feBlend mode="normal" in2="shape" result="effect1_innerShadow_72_1102"/>
</filter>
</defs>
</svg>
